<svg width="211" height="32" viewBox="0 0 211 32" fill="none" xmlns="http://www.w3.org/2000/svg">
<path d="M12.8319 6.82631C12.7474 5.93348 12.3716 5.24169 11.7133 4.74797C11.052 4.25425 10.1519 4.00591 9.01873 4.00591C8.24678 4.00591 7.59717 4.1153 7.06409 4.33407C6.53683 4.54989 6.12609 4.85144 5.85227 5.23282C5.56971 5.61715 5.42988 6.05174 5.42988 6.53954C5.41531 6.94457 5.50271 7.29934 5.68623 7.60089C5.87266 7.90835 6.12609 8.16556 6.45527 8.38433C6.78152 8.60311 7.16022 8.78936 7.59134 8.94605C8.01665 9.10569 8.4769 9.24169 8.96338 9.35107L10.9705 9.83888C11.9434 10.0636 12.8377 10.3533 13.6534 10.7228C14.4661 11.0924 15.171 11.5477 15.7711 12.0828C16.3654 12.6238 16.8315 13.2565 17.1577 13.9897C17.4898 14.7169 17.6588 15.5595 17.6646 16.5055C17.6588 17.8921 17.3121 19.0924 16.6276 20.1064C15.9401 21.1175 14.9467 21.9069 13.6563 22.4627C12.3658 23.0185 10.8161 23.2993 8.99251 23.2993C7.19226 23.2993 5.62505 23.0185 4.29089 22.4597C2.95381 21.898 1.91386 21.0673 1.17104 19.9586C0.425302 18.8588 0.0349563 17.493 0 15.8611H4.56471C4.61715 16.6179 4.83854 17.2535 5.21723 17.7561C5.59884 18.2646 6.11153 18.646 6.75822 18.9002C7.39617 19.1545 8.12734 19.2786 8.94299 19.2786C9.74116 19.2786 10.4374 19.1633 11.0316 18.9268C11.6259 18.6933 12.0803 18.3651 12.4095 17.9453C12.7357 17.5225 12.8989 17.0407 12.8989 16.4878C12.8989 15.9793 12.7503 15.5536 12.459 15.2047C12.1619 14.8588 11.7366 14.5662 11.1744 14.3237C10.6063 14.0783 9.92177 13.8566 9.10612 13.6585L6.67374 13.0407C4.79193 12.5735 3.30046 11.8433 2.21099 10.8588C1.12151 9.8714 0.579692 8.53511 0.588431 6.86179C0.579692 5.49002 0.940907 4.28973 1.67499 3.26386C2.40033 2.23799 3.40824 1.43976 4.68997 0.863267C5.96879 0.28677 7.42239 0 9.05077 0C10.7083 0 12.1561 0.28677 13.397 0.863267C14.635 1.43976 15.6022 2.23799 16.2926 3.26386C16.9859 4.28973 17.3383 5.47524 17.3645 6.82631H12.8319Z" fill="#131211"/>
<path d="M26.6862 23.3109C24.9734 23.3109 23.4965 22.9414 22.2643 22.1993C21.0291 21.4543 20.0824 20.4255 19.427 19.101C18.7686 17.7825 18.4395 16.2599 18.4395 14.5423C18.4395 12.8009 18.7715 11.2725 19.4386 9.95394C20.1028 8.63834 21.0495 7.60952 22.2788 6.86746C23.5081 6.12541 24.9734 5.75586 26.6658 5.75586C28.1253 5.75586 29.4041 6.02193 30.5052 6.56C31.6005 7.10102 32.4715 7.86081 33.1124 8.83051C33.7503 9.80907 34.1028 10.9502 34.1698 12.2599H29.7828C29.6604 11.4144 29.3342 10.7285 28.8069 10.2082C28.2797 9.68786 27.5922 9.4277 26.7445 9.4277C26.0221 9.4277 25.3928 9.62578 24.8598 10.0219C24.3267 10.4151 23.9072 10.9887 23.6101 11.7396C23.3129 12.4935 23.1644 13.407 23.1644 14.4772C23.1644 15.5593 23.3071 16.4846 23.6042 17.2414C23.8985 18.0072 24.3179 18.5836 24.8539 18.9828C25.3928 19.3819 26.0221 19.58 26.7445 19.58C27.2688 19.58 27.7524 19.4706 28.1777 19.2488C28.6001 19.0242 28.9555 18.7019 29.2322 18.2762C29.5119 17.8564 29.6954 17.342 29.7828 16.7448H34.1698C34.0941 18.0426 33.7503 19.1838 33.1269 20.1712C32.5065 21.1587 31.6471 21.9273 30.5576 22.4802C29.4653 23.036 28.1777 23.3109 26.6862 23.3109Z" fill="#131211"/>
<path d="M43.1003 23.3109C41.4049 23.3109 39.9397 22.9414 38.7074 22.2082C37.4782 21.475 36.5256 20.4462 35.8556 19.1335C35.1856 17.815 34.8535 16.2865 34.8535 14.5423C34.8535 12.7862 35.1856 11.2518 35.8556 9.93324C36.5256 8.61469 37.4782 7.58882 38.7074 6.85859C39.9397 6.1195 41.4049 5.75586 43.1003 5.75586C44.7928 5.75586 46.258 6.1195 47.4902 6.85859C48.7195 7.58882 49.6721 8.61469 50.3421 9.93324C51.0092 11.2518 51.3471 12.7862 51.3471 14.5423C51.3471 16.2865 51.0092 17.815 50.3421 19.1335C49.6721 20.4462 48.7195 21.475 47.4902 22.2082C46.258 22.9414 44.7928 23.3109 43.1003 23.3109ZM43.1207 19.6568C43.8926 19.6568 44.5335 19.4351 45.0491 18.9887C45.5676 18.5423 45.9551 17.9273 46.2231 17.1528C46.4881 16.3811 46.6221 15.4972 46.6221 14.5097C46.6221 13.5223 46.4881 12.6383 46.2231 11.8667C45.9551 11.0921 45.5676 10.4772 45.0491 10.0249C44.5335 9.57552 43.8926 9.35083 43.1207 9.35083C42.3429 9.35083 41.6904 9.57552 41.1631 10.0249C40.6359 10.4772 40.2368 11.0921 39.9717 11.8667C39.7095 12.6383 39.5784 13.5223 39.5784 14.5097C39.5784 15.4972 39.7095 16.3811 39.9717 17.1528C40.2368 17.9273 40.6359 18.5423 41.1631 18.9887C41.6904 19.4351 42.3429 19.6568 43.1207 19.6568Z" fill="#131211"/>
<path d="M63.4952 15.7366V5.97461H68.1444V22.9768H63.6787V19.8904H63.5068C63.1281 20.8837 62.5018 21.6849 61.6279 22.2909C60.7482 22.894 59.682 23.2015 58.4236 23.2015C57.3021 23.2015 56.3175 22.9414 55.4698 22.421C54.6192 21.9066 53.955 21.1764 53.4773 20.2185C53.0025 19.2695 52.7607 18.1313 52.752 16.8009V5.97461H57.3982V15.9584C57.4041 16.9606 57.6691 17.7558 58.1935 18.3382C58.7207 18.9207 59.4199 19.2163 60.3025 19.2163C60.8589 19.2163 61.3803 19.0803 61.8668 18.8201C62.3591 18.557 62.7524 18.1727 63.0553 17.6524C63.3583 17.138 63.501 16.4994 63.4952 15.7366Z" fill="#131211"/>
<path d="M79.1347 5.9743V9.51606H69.0469V5.9743H79.1347ZM71.3394 1.90039H75.9828V17.7496C75.9828 18.1872 76.0498 18.5242 76.1809 18.7637C76.309 19.0031 76.4926 19.1746 76.7285 19.2692C76.9645 19.3668 77.2412 19.4141 77.5529 19.4141C77.7743 19.4141 77.9899 19.3934 78.2083 19.352C78.4297 19.3106 78.5929 19.2781 78.7094 19.2574L79.4435 22.7637C79.2075 22.8435 78.8783 22.9263 78.4589 23.0297C78.0394 23.1273 77.5238 23.1864 76.9179 23.2101C75.8022 23.2515 74.8205 23.1007 73.9815 22.7548C73.1397 22.4118 72.4901 21.8708 72.024 21.1376C71.5579 20.4104 71.3278 19.485 71.3394 18.3734V1.90039Z" fill="#131211"/>
<path d="M84.5393 0.307617L89.9343 17.5345H90.144L95.5535 0.307617H100.785L93.0861 22.9772H87.0008L79.293 0.307617H84.5393Z" fill="#F88007"/>
<path d="M107.483 23.3109C105.758 23.3109 104.278 22.9532 103.035 22.2407C101.797 21.5282 100.844 20.5201 100.174 19.2074C99.504 17.8978 99.1719 16.3486 99.1719 14.557C99.1719 12.8069 99.504 11.2666 100.174 9.94802C100.844 8.62947 101.788 7.60065 103.005 6.86155C104.223 6.12541 105.65 5.75586 107.293 5.75586C108.4 5.75586 109.434 5.93324 110.393 6.29097C111.342 6.64869 112.184 7.1838 112.901 7.9022C113.612 8.61765 114.168 9.51639 114.573 10.5984C114.972 11.6775 115.173 12.9399 115.173 14.3915V15.6834H101.025V12.7596H110.795C110.795 12.0825 110.652 11.4824 110.361 10.9562C110.069 10.4329 109.67 10.0219 109.158 9.72629C108.645 9.42474 108.048 9.27397 107.372 9.27397C106.67 9.27397 106.047 9.43952 105.502 9.76768C104.96 10.0929 104.535 10.5363 104.235 11.0862C103.926 11.6302 103.772 12.2451 103.763 12.9162V15.6953C103.763 16.5349 103.917 17.2621 104.229 17.8771C104.535 18.489 104.975 18.9621 105.54 19.2902C106.108 19.6213 106.784 19.7869 107.561 19.7869C108.071 19.7869 108.549 19.7159 108.98 19.5711C109.402 19.4203 109.772 19.2015 110.078 18.9059C110.381 18.6073 110.617 18.2437 110.774 17.8179L115.074 18.1047C114.856 19.1542 114.41 20.0678 113.74 20.8482C113.064 21.6258 112.199 22.2289 111.144 22.6605C110.084 23.0921 108.866 23.3109 107.483 23.3109Z" fill="#F88007"/>
<path d="M121.225 13.1498V22.9769H116.576V5.97463H121.004V8.97537H121.205C121.572 7.98498 122.195 7.20154 123.066 6.62208C123.937 6.04263 124.998 5.75586 126.242 5.75586C127.404 5.75586 128.418 6.01011 129.28 6.53043C130.145 7.04485 130.821 7.78099 131.304 8.73886C131.779 9.69378 132.021 10.832 132.021 12.1505V22.9769H127.378V12.9931C127.383 11.9525 127.121 11.1395 126.588 10.5511C126.055 9.96281 125.33 9.67308 124.398 9.67308C123.774 9.67308 123.221 9.80907 122.743 10.084C122.268 10.3531 121.901 10.7522 121.633 11.2725C121.368 11.7928 121.228 12.4166 121.225 13.1498Z" fill="#F88007"/>
<path d="M140.222 23.2522C138.955 23.2522 137.801 22.9211 136.773 22.25C135.745 21.5848 134.929 20.5973 134.332 19.2995C133.726 17.9957 133.432 16.3963 133.432 14.4983C133.432 12.553 133.738 10.9299 134.358 9.63208C134.976 8.33718 135.8 7.36749 136.828 6.72299C137.859 6.0785 138.984 5.75625 140.213 5.75625C141.148 5.75625 141.932 5.9159 142.561 6.23519C143.193 6.55743 143.703 6.95655 144.093 7.42957C144.481 7.90851 144.775 8.37562 144.979 8.8309H145.122V0.307617H149.753V22.9772H145.174V20.2544H144.979C144.763 20.7274 144.457 21.1975 144.058 21.6528C143.662 22.1169 143.152 22.5013 142.52 22.8028C141.891 23.1014 141.125 23.2522 140.222 23.2522ZM141.696 19.5035C142.445 19.5035 143.08 19.2936 143.601 18.8797C144.12 18.4569 144.519 17.8775 144.798 17.1236C145.081 16.3697 145.218 15.4857 145.218 14.4776C145.218 13.4665 145.081 12.5885 144.804 11.8435C144.527 11.0955 144.128 10.519 143.607 10.114C143.08 9.70895 142.445 9.50791 141.696 9.50791C140.936 9.50791 140.289 9.71486 139.767 10.1347C139.24 10.5574 138.847 11.1428 138.576 11.8878C138.308 12.6358 138.177 13.4961 138.177 14.4776C138.177 15.465 138.308 16.3401 138.585 17.097C138.856 17.8509 139.252 18.4421 139.773 18.8649C140.289 19.2906 140.936 19.5035 141.696 19.5035Z" fill="#F88007"/>
<path d="M159.508 23.3109C157.813 23.3109 156.348 22.9414 155.116 22.2082C153.886 21.475 152.934 20.4462 152.264 19.1335C151.594 17.815 151.262 16.2865 151.262 14.5423C151.262 12.7862 151.594 11.2518 152.264 9.93324C152.934 8.61469 153.886 7.58882 155.116 6.85859C156.348 6.1195 157.813 5.75586 159.508 5.75586C161.201 5.75586 162.666 6.1195 163.898 6.85859C165.128 7.58882 166.08 8.61469 166.75 9.93324C167.417 11.2518 167.755 12.7862 167.755 14.5423C167.755 16.2865 167.417 17.815 166.75 19.1335C166.08 20.4462 165.128 21.475 163.898 22.2082C162.666 22.9414 161.201 23.3109 159.508 23.3109ZM159.529 19.6568C160.301 19.6568 160.942 19.4351 161.457 18.9887C161.976 18.5423 162.363 17.9273 162.631 17.1528C162.896 16.3811 163.03 15.4972 163.03 14.5097C163.03 13.5223 162.896 12.6383 162.631 11.8667C162.363 11.0921 161.976 10.4772 161.457 10.0249C160.942 9.57552 160.301 9.35083 159.529 9.35083C158.751 9.35083 158.099 9.57552 157.571 10.0249C157.044 10.4772 156.645 11.0921 156.38 11.8667C156.118 12.6383 155.987 13.5223 155.987 14.5097C155.987 15.4972 156.118 16.3811 156.38 17.1528C156.645 17.9273 157.044 18.5423 157.571 18.9887C158.099 19.4351 158.751 19.6568 159.529 19.6568Z" fill="#F88007"/>
<path d="M169.16 22.9771V5.97487H173.664V8.94014H173.838C174.144 7.8847 174.657 7.08648 175.379 6.54546C176.096 6.00444 176.923 5.72949 177.867 5.72949C178.097 5.72949 178.348 5.74723 178.619 5.77679C178.884 5.80931 179.12 5.84479 179.327 5.89505V10.0843C179.105 10.0163 178.802 9.96009 178.421 9.90688C178.036 9.85662 177.684 9.83001 177.366 9.83001C176.679 9.83001 176.07 9.98079 175.537 10.2764C175.001 10.578 174.581 10.9889 174.267 11.524C173.961 12.0532 173.806 12.6652 173.806 13.357V22.9771H169.16Z" fill="#F88007"/>
<path fill-rule="evenodd" clip-rule="evenodd" d="M179.684 13.2705V13.5011V13.5188V13.5514C179.684 13.6105 179.684 13.6696 179.684 13.7287V13.7376V13.8588C179.687 13.98 179.707 13.9682 179.721 14.048C179.739 14.1249 179.719 14.2432 179.724 14.32C179.742 14.5151 179.791 14.3112 179.797 14.5447C179.8 14.66 179.788 14.7546 179.823 14.861L179.838 15.0739C179.841 15.269 179.882 15.1478 179.905 15.2809C179.911 15.3282 179.902 15.3695 179.911 15.4109C179.94 15.5233 179.946 15.3962 179.978 15.6415C179.987 15.7007 179.984 15.677 179.992 15.6977C179.992 15.7036 179.995 15.7095 179.998 15.7125C180.024 15.7953 180.007 15.8574 180.022 15.9401C180.033 15.9933 180.03 15.9667 180.051 16.0052C180.089 16.0761 180.074 15.9904 180.086 16.1027C180.091 16.1559 180.08 16.1766 180.097 16.2299L180.158 16.3747C180.158 16.3806 180.158 16.3865 180.161 16.3954C180.161 16.4013 180.164 16.4072 180.164 16.4132L180.421 17.1138C180.421 17.1197 180.424 17.1256 180.426 17.1316C180.426 17.1375 180.429 17.1434 180.432 17.1493C180.432 17.1552 180.435 17.1611 180.438 17.167L180.523 17.4449C180.534 17.4922 180.531 17.4745 180.54 17.4952C180.543 17.5011 180.56 17.5188 180.569 17.5366L180.747 17.9061C180.75 17.9091 180.753 17.915 180.753 17.918L180.808 18.0717C180.831 18.1633 180.802 18.0924 180.843 18.1722C180.846 18.1781 180.849 18.1811 180.852 18.187L181.073 18.6452C181.111 18.7132 181.073 18.6571 181.137 18.7191C181.19 18.7724 181.19 18.7931 181.219 18.867C181.274 19.0207 181.327 19.003 181.402 19.1833C181.402 19.1863 181.423 19.2306 181.423 19.2306C181.426 19.2336 181.428 19.2395 181.431 19.2454L181.493 19.3666C181.542 19.4612 181.533 19.3873 181.635 19.5854L181.9 19.9815C181.903 19.9874 181.918 19.9993 181.924 20.0022L181.979 20.085C181.991 20.1146 181.976 20.0939 181.999 20.1323C182.049 20.2239 182.148 20.2742 182.203 20.3599C182.265 20.4545 182.256 20.4664 182.355 20.5728L182.422 20.6408C182.489 20.7324 182.46 20.7413 182.573 20.8537C182.967 21.2469 182.844 21.1877 182.935 21.2853L183.028 21.374C183.066 21.4124 183.071 21.4242 183.106 21.4568L183.185 21.5366C183.188 21.5425 183.203 21.5543 183.208 21.5602C183.223 21.575 183.232 21.5839 183.24 21.5928L183.409 21.7199C183.584 21.8115 183.867 22.2254 184.068 22.3319C184.164 22.3821 184.205 22.459 184.315 22.5151L184.461 22.6423C184.531 22.7044 184.598 22.7103 184.659 22.7842C184.726 22.8581 184.77 22.8581 184.834 22.9054L184.947 23.0177C185.02 23.0798 185.073 23.0857 185.096 23.0976C185.099 23.1005 185.105 23.1035 185.111 23.1064L185.297 23.2365C185.344 23.2631 185.344 23.2542 185.387 23.2809L185.9 23.6061C185.906 23.609 185.912 23.612 185.915 23.6149L186.337 23.8278C186.34 23.8307 186.346 23.8337 186.352 23.8367L186.596 23.952C186.602 23.9549 186.608 23.9579 186.611 23.9608C186.614 23.9638 186.62 23.9667 186.625 23.9697L186.818 24.0702C186.823 24.0732 186.829 24.0761 186.832 24.0791L187.476 24.3392C187.543 24.3777 187.566 24.4043 187.642 24.425L187.793 24.4752C187.799 24.4782 187.805 24.4812 187.811 24.4812C187.814 24.4841 187.82 24.4871 187.825 24.4871C187.831 24.49 187.837 24.49 187.843 24.493C187.863 24.4989 187.875 24.4989 187.898 24.5048L188.137 24.5846C188.193 24.6142 188.23 24.6053 188.292 24.6112C188.396 24.6231 188.35 24.6408 188.434 24.6704L188.72 24.7472C188.801 24.7916 188.662 24.7827 188.83 24.7945C188.868 24.7975 188.93 24.7886 188.967 24.7945C189.084 24.8123 189.043 24.8596 189.168 24.8625C189.241 24.8655 189.527 24.9098 189.585 24.9453C189.64 24.9778 189.707 24.9778 189.78 24.9778C190.045 24.9719 189.827 25.0488 190.275 25.0429C190.54 25.0429 190.307 25.1138 190.771 25.1138C190.899 25.1138 191.044 25.0961 191.173 25.1168C191.286 25.1375 191.202 25.1611 191.289 25.1611H192.416C192.495 25.1611 192.431 25.1463 192.495 25.1256C192.539 25.1138 192.556 25.1138 192.594 25.1138V21.915C192.271 21.9239 191.19 21.9298 191.068 21.9091C191.004 21.8973 190.983 21.8677 190.884 21.8647C190.459 21.8529 190.677 21.8322 190.52 21.7997C190.45 21.7849 190.325 21.8056 190.249 21.7997C190.057 21.782 190.27 21.7465 190.028 21.7287C189.798 21.714 190.016 21.6874 189.824 21.6608L189.649 21.6312C189.602 21.6134 189.643 21.6194 189.576 21.6134C189.538 21.6105 189.477 21.6194 189.442 21.6134C189.337 21.5987 189.407 21.5868 189.244 21.5395L189.136 21.4893C189.066 21.4656 188.985 21.4568 188.915 21.4154L188.889 21.3976C188.842 21.371 188.906 21.3947 188.845 21.374L188.673 21.3178C188.612 21.2882 188.493 21.2705 188.423 21.2291C188.318 21.17 188.443 21.2143 188.312 21.1818L188.035 21.0488C188.035 21.0488 187.989 21.031 187.989 21.0281C187.968 21.0222 187.927 21.0044 187.925 21.0044L187.546 20.8152C187.482 20.7857 187.418 20.7058 187.348 20.6733L186.949 20.4368C186.92 20.422 186.928 20.4309 186.902 20.4161C186.861 20.3954 186.89 20.4161 186.847 20.3806C186.687 20.2476 186.812 20.3806 186.582 20.1707C186.538 20.1323 186.57 20.1559 186.526 20.1353L186.372 20.017C186.296 19.9401 186.258 19.9667 186.139 19.8426L186.092 19.7982C186.002 19.7095 185.935 19.6268 185.821 19.5706C185.693 19.5026 185.594 19.3459 185.486 19.2454C185.475 19.2365 185.451 19.2158 185.451 19.2158L185.309 19.0621C184.985 18.7369 185.236 18.9172 184.921 18.6068C184.889 18.5772 184.883 18.5713 184.851 18.5418L184.761 18.4265C184.758 18.4235 184.755 18.4146 184.755 18.4117C184.7 18.2993 184.7 18.3525 184.604 18.1752L184.554 18.1131C184.525 18.0835 184.516 18.0835 184.484 18.0451C184.478 18.0421 184.458 18.0126 184.455 18.0066C184.432 17.9653 184.446 17.986 184.435 17.9593C184.374 17.8263 184.298 17.8381 184.237 17.6785L184.205 17.5957C184.091 17.3681 184.158 17.4981 184.041 17.3503C183.992 17.2912 184.024 17.3208 183.992 17.238C183.992 17.2321 183.983 17.2143 183.98 17.2055C183.919 17.0606 183.832 17.0636 183.791 16.8744L183.549 16.3392C183.456 16.153 183.488 16.1589 183.424 16.0318C183.409 16.0052 183.424 16.0525 183.404 15.9845C183.398 15.9638 183.401 15.952 183.395 15.9253C183.392 15.9194 183.392 15.9135 183.389 15.9076L183.255 15.5647C183.191 15.4523 183.194 15.3341 183.173 15.2129C183.15 15.1005 183.127 15.1685 183.112 15.071C183.106 15.0355 183.109 15.0118 183.109 14.9823C183.092 14.7931 183.051 14.9763 183.039 14.7783C183.036 14.731 183.045 14.6896 183.036 14.6423C183.016 14.5151 183.007 14.5861 182.996 14.3851C182.984 14.1722 182.923 14.4412 182.929 14.0214C182.932 13.7524 182.859 13.9682 182.859 13.5188C182.859 13.4154 182.859 13.3326 182.859 13.2705H179.684Z" fill="#BCBBBA"/>
<path fill-rule="evenodd" clip-rule="evenodd" d="M182.792 12.9937V12.5828C182.824 12.3788 182.87 12.7129 182.859 11.9176C182.856 11.6663 182.876 11.7461 182.905 11.69C182.946 11.6131 182.926 11.5008 182.926 11.4121C182.926 11.1903 182.955 11.35 182.99 11.2022C183.01 11.1164 182.981 11.0189 183.007 10.9243C183.06 10.7498 183.022 10.7439 183.074 10.6493C183.109 10.5931 183.098 10.5251 183.112 10.4601C183.133 10.3714 183.162 10.4039 183.176 10.2502C183.185 10.1319 183.287 9.857 183.334 9.7683L183.476 9.33963C183.476 9.33667 183.479 9.33076 183.482 9.32485C183.52 9.25094 183.575 9.17998 183.596 9.0972C183.61 9.04399 183.605 9.04103 183.622 8.98486L184.318 7.70179C184.347 7.6397 184.315 7.66631 184.374 7.59831C184.397 7.57466 184.42 7.55988 184.443 7.53327L184.63 7.28493C184.709 7.19624 184.685 7.16668 184.811 7.0366C184.91 6.93312 184.796 6.99225 185.064 6.72026C185.166 6.61679 185.253 6.5281 185.358 6.42462C185.387 6.3921 185.393 6.38915 185.416 6.34776C185.486 6.20881 185.416 6.27976 185.55 6.20881C185.6 6.1822 185.603 6.17333 185.635 6.1349L185.92 5.85108C185.984 5.78604 186.057 5.68848 186.13 5.653C186.261 5.59683 186.191 5.6264 186.296 5.52588C186.36 5.46675 186.354 5.4904 186.427 5.44901L186.465 5.42241L186.625 5.28641C186.681 5.25685 186.643 5.29233 186.71 5.2332L186.87 5.10016C186.876 5.10016 186.882 5.0972 186.888 5.09425L187.479 4.73652C187.485 4.73357 187.49 4.73061 187.496 4.72765L188.059 4.43201C188.169 4.36697 188.108 4.40836 188.262 4.36402L188.367 4.3108C188.452 4.2635 188.545 4.19255 188.635 4.1689L188.798 4.13046C188.804 4.12751 188.81 4.12751 188.816 4.12455L188.921 4.09499C188.979 4.06542 188.915 4.08907 188.962 4.06838C189.026 4.03881 189.008 4.05951 189.072 4.04177C189.125 4.02403 189.075 4.04177 189.119 4.02108L189.518 3.92056C189.629 3.87326 189.46 3.89395 189.623 3.86734C189.684 3.85847 189.739 3.86439 189.792 3.83482C189.862 3.79343 189.801 3.81413 189.958 3.79639C190.077 3.78456 189.99 3.78161 190.08 3.76091C190.162 3.74022 190.255 3.76683 190.337 3.74613C190.503 3.70474 190.281 3.69587 190.704 3.687C190.718 3.68405 190.756 3.68405 190.768 3.68109C190.808 3.67222 190.794 3.67222 190.814 3.6604C190.873 3.62788 190.785 3.61309 191.062 3.61605C191.971 3.62492 191.359 3.54214 191.851 3.5451C191.93 3.54805 192.076 3.5451 192.122 3.56875C192.178 3.60127 192.099 3.61901 192.347 3.61605C192.405 3.61605 192.498 3.60718 192.594 3.60718V0.390625H190.695C190.689 0.390625 190.683 0.390625 190.68 0.390625L190.613 0.414276C190.511 0.449753 190.404 0.426102 190.296 0.434971C190.086 0.449753 190.351 0.508881 189.935 0.502968C189.838 0.502968 189.798 0.529575 189.707 0.547314C189.62 0.562096 189.509 0.529575 189.433 0.565052C189.317 0.618267 189.477 0.582791 189.346 0.615311C189.302 0.62418 189.262 0.612354 189.218 0.621224C189.107 0.644875 189.177 0.647831 189.131 0.671482C189.064 0.701046 189.069 0.680352 188.994 0.689221L188.924 0.709915C188.798 0.751305 188.793 0.706959 188.67 0.774956C188.583 0.825215 188.53 0.780869 188.437 0.834084L187.488 1.15337C187.359 1.19181 187.266 1.25685 187.147 1.31006L186.879 1.40467C186.855 1.41649 186.855 1.41649 186.835 1.42832L186.608 1.54066C186.602 1.54066 186.596 1.54362 186.59 1.54657L186.401 1.653C186.191 1.77126 186.18 1.71805 186.113 1.7683C186.084 1.789 186.069 1.82152 186.043 1.8363C185.996 1.86587 186.028 1.84221 185.996 1.857L185.964 1.86882C185.958 1.87178 185.952 1.87473 185.95 1.87769C185.9 1.9043 185.95 1.88065 185.906 1.9043L185.667 2.05212C185.661 2.05507 185.647 2.06394 185.638 2.0669C185.629 2.07281 185.615 2.08168 185.594 2.09055L184.988 2.48079C184.93 2.53992 184.851 2.56653 184.784 2.61679L184.642 2.70252C184.583 2.75278 184.566 2.79122 184.496 2.82965C184.394 2.88582 184.347 2.97156 184.251 3.01295C184.146 3.06025 184.068 3.16372 183.983 3.2465C183.8 3.43275 183.84 3.34406 183.739 3.43275L183.392 3.78752C183.371 3.80822 183.374 3.80526 183.357 3.823L182.783 4.40541C182.78 4.40836 182.774 4.41428 182.771 4.41723L182.661 4.53253C182.617 4.60349 182.614 4.64192 182.556 4.70105C182.533 4.72174 182.538 4.71583 182.521 4.73357L182.326 4.92573C182.253 5.00555 182.27 5.05581 182.16 5.16816C182.087 5.23911 182.055 5.3278 181.982 5.39876L181.708 5.80969C181.705 5.81265 181.699 5.81561 181.696 5.82152L181.493 6.1615C181.493 6.16742 181.49 6.17333 181.487 6.17924C181.487 6.18516 181.484 6.19107 181.481 6.19698C181.452 6.27089 181.493 6.20881 181.428 6.27976C181.356 6.35958 181.335 6.46897 181.271 6.5547L180.779 7.49779C180.779 7.50371 180.77 7.5244 180.767 7.53031L180.712 7.63379C180.639 7.76683 180.627 7.90282 180.558 8.02699L180.502 8.13046C180.447 8.23689 180.426 8.33445 180.403 8.44088L180.243 8.89617C180.243 8.90208 180.237 8.90799 180.234 8.91095L180.19 9.04694C180.188 9.05286 180.185 9.05877 180.185 9.06468C180.182 9.0706 180.179 9.07651 180.179 9.08242L180.138 9.24798C180.106 9.31598 180.103 9.2332 180.089 9.35737C180.068 9.52292 180.097 9.44606 180.054 9.52588C180.022 9.57909 180.027 9.63231 180.019 9.69735C179.995 9.85995 180.007 9.68552 179.981 9.81856C179.972 9.86586 179.981 9.9043 179.972 9.94569C179.949 10.0344 179.922 9.99595 179.908 10.1556C179.89 10.33 179.87 10.1881 179.844 10.3182L179.841 10.5222C179.832 10.6759 179.794 10.5813 179.794 10.7735C179.791 11.1903 179.719 10.942 179.727 11.2761L179.692 11.5155C179.687 11.5303 179.684 11.5569 179.684 11.5924V13.2716H182.859C182.85 12.9435 182.821 13.1031 182.792 12.9937Z" fill="#131211"/>
<path fill-rule="evenodd" clip-rule="evenodd" d="M200.91 13.2705C200.908 13.4095 200.902 13.5277 200.884 13.6046C200.87 13.6755 200.841 13.7258 200.843 13.8381C200.849 14.1486 200.814 14.0066 200.779 14.1397C200.753 14.2432 200.803 14.3673 200.768 14.4708C200.753 14.5211 200.727 14.5151 200.712 14.5743C200.704 14.6186 200.715 14.6571 200.704 14.7014C200.677 14.8315 200.707 14.6807 200.66 14.7931C200.628 14.864 200.648 14.8344 200.64 14.9113L200.605 15.0384C200.575 15.1596 200.628 15.1271 200.558 15.2631C200.538 15.3075 200.552 15.2572 200.538 15.3104L200.511 15.4198C200.488 15.4701 200.508 15.4021 200.476 15.476L200.345 15.9165C200.325 16.0052 200.296 16.014 200.275 16.1205L200.255 16.1914C200.255 16.1973 200.252 16.2032 200.249 16.2092L200.002 16.6881C200.002 16.694 199.999 16.6999 199.999 16.7058L199.742 17.2262C199.731 17.2498 199.736 17.2439 199.722 17.2735L199.466 17.7228C199.436 17.7613 199.425 17.7435 199.393 17.8086C199.285 18.0126 199.265 17.9534 199.198 18.0924L199.133 18.187C199.075 18.252 199.075 18.2993 199.029 18.3555L198.702 18.7546C198.697 18.7576 198.694 18.7605 198.691 18.7635C198.685 18.7694 198.682 18.7724 198.679 18.7753L198.271 19.2542C198.193 19.337 198.126 19.3222 197.98 19.4848L197.925 19.544C197.922 19.5469 197.916 19.5499 197.913 19.5558C197.91 19.5588 197.904 19.5617 197.901 19.5647L197.799 19.6681C197.796 19.6711 197.791 19.677 197.788 19.68C197.785 19.6829 197.782 19.6888 197.776 19.6918C197.776 19.6918 197.75 19.7214 197.744 19.7273L197.601 19.8544C197.537 19.8928 197.616 19.8455 197.555 19.8751L197.482 19.9194C197.354 20.0318 197.444 19.9786 197.278 20.0761C197.208 20.1175 197.196 20.1559 197.094 20.2092C197.03 20.2417 197.004 20.2979 196.952 20.3392C196.879 20.3954 196.847 20.3925 196.774 20.4575L196.142 20.8448C196.136 20.8477 196.13 20.8507 196.127 20.8507L195.92 20.963C195.851 21.0044 195.737 21.0103 195.652 21.0576C195.638 21.0636 195.612 21.0783 195.609 21.0813L195.387 21.1996C195.21 21.2971 195.186 21.2616 195.076 21.3178L194.339 21.575C194.26 21.6164 194.359 21.5987 194.24 21.6134C194.164 21.6223 194.176 21.6075 194.1 21.6312L193.992 21.6608C193.873 21.6726 193.867 21.7081 193.785 21.7258C193.715 21.7406 193.654 21.7347 193.599 21.7642C193.511 21.8174 193.395 21.7908 193.293 21.7967C193.083 21.8027 193.296 21.8736 192.932 21.8647C192.801 21.8618 192.792 21.8943 192.684 21.912C192.675 21.912 192.643 21.912 192.594 21.915V25.1138H192.617C192.789 25.1109 192.99 25.1345 193.159 25.1138C193.316 25.0961 193.182 25.0547 193.36 25.0429C193.468 25.037 193.622 25.0783 193.721 25.0222C193.797 24.9808 193.669 25.0015 193.811 24.9778C193.905 24.963 194.007 25.0015 194.088 24.9601C194.181 24.9128 194.161 24.9098 194.286 24.9098L194.656 24.827C194.7 24.8034 194.645 24.8211 194.7 24.8034C194.767 24.7797 194.886 24.8004 194.942 24.7738L195.09 24.7177C195.096 24.7177 195.102 24.7147 195.108 24.7147C195.114 24.7117 195.119 24.7117 195.125 24.7088L195.268 24.6704C195.274 24.6704 195.28 24.6674 195.285 24.6644C195.291 24.6644 195.297 24.6615 195.3 24.6585C195.358 24.6319 195.288 24.6585 195.344 24.6319C195.37 24.6201 195.323 24.626 195.393 24.6142L195.518 24.6024C195.571 24.5905 195.521 24.6024 195.565 24.5817L195.734 24.5255C195.903 24.4723 196.081 24.4161 196.235 24.3245C196.282 24.2979 196.22 24.3215 196.279 24.3008C196.32 24.286 196.302 24.2979 196.337 24.289C196.448 24.2712 196.523 24.2032 196.631 24.1766L196.756 24.1234C196.78 24.1086 196.771 24.1146 196.803 24.0998L196.85 24.082C196.975 24.0377 196.995 24.0495 197.083 23.9727L197.217 23.9017C197.22 23.8987 197.225 23.8958 197.231 23.8958C197.237 23.8928 197.258 23.884 197.263 23.881C197.266 23.878 197.272 23.8751 197.278 23.8721L197.974 23.5055C197.98 23.5026 197.986 23.4996 197.989 23.4967L198.449 23.2099C198.455 23.2069 198.461 23.204 198.463 23.201L198.589 23.1212C198.638 23.0739 198.632 23.0621 198.714 23.0384C198.787 23.0148 198.746 22.9793 198.769 23.0562C198.863 23.0946 198.793 23.0503 198.822 23.1656L198.927 23.4464C198.93 23.4494 198.932 23.4553 198.935 23.4612L199.052 23.7066C199.084 23.7953 199.052 23.7598 199.119 23.8248C199.238 23.9372 199.171 23.9313 199.34 24.1027L199.836 24.6053C200.275 25.0517 200.701 25.4834 201.143 25.9327L206.518 31.3873C206.617 31.4908 206.699 31.5233 206.795 31.609C206.865 31.6741 207.007 31.7214 207.095 31.7627L207.459 31.9165C207.497 31.9372 207.468 31.9313 207.52 31.946L207.648 31.9756C207.68 31.9874 207.721 31.9933 207.768 31.9993H208.519H208.528L208.776 31.9963C208.886 31.9815 208.822 31.9786 208.895 31.9608L209.076 31.8899C209.285 31.8367 209.134 31.9283 209.419 31.7805L209.495 31.745C209.498 31.7421 209.53 31.7095 209.542 31.7007L209.763 31.5795C209.827 31.5469 209.877 31.4789 209.926 31.4287L210.43 30.8847C210.433 30.8817 210.433 30.8729 210.436 30.8699L210.698 30.4028C210.724 30.32 210.707 30.3466 210.716 30.2609C210.73 30.1013 210.748 30.2077 210.78 30.0953C210.78 30.0894 210.78 30.0835 210.783 30.0776L210.806 29.986C210.809 29.98 210.812 29.9771 210.812 29.9712C210.815 29.9653 210.818 29.9593 210.818 29.9534C210.823 29.9387 210.826 29.9239 210.826 29.9032V28.9217C210.826 28.9098 210.826 28.901 210.823 28.8921C210.806 28.7857 210.797 28.8744 210.786 28.7502C210.768 28.5964 210.745 28.5905 210.704 28.4398C210.704 28.4338 210.701 28.4279 210.701 28.422L210.663 28.3452C210.663 28.3392 210.66 28.3333 210.657 28.3304L210.555 28.1353C210.553 28.1293 210.55 28.1234 210.547 28.1205C210.547 28.1146 210.544 28.1086 210.541 28.1057L210.5 28.0111C210.497 28.0052 210.494 27.9993 210.491 27.9933C210.451 27.8899 210.354 27.8367 210.311 27.7421C210.261 27.6445 210.159 27.5588 210.078 27.476L202.842 20.1796L202.682 20.0909C202.652 20.0673 202.684 20.088 202.65 20.0584C202.644 20.0525 202.629 20.0406 202.623 20.0377C202.617 20.0347 202.615 20.0318 202.609 20.0288L202.562 20.0081C202.419 19.9342 202.408 19.9165 202.25 19.8662C202.198 19.8514 202.245 19.8692 202.204 19.8455C202.131 19.8071 202.067 19.8071 201.971 19.8071C201.98 19.6918 201.974 19.7805 201.994 19.7184L202.16 19.4494C202.163 19.4464 202.166 19.4405 202.169 19.4346L202.766 18.3496C202.769 18.3466 202.772 18.3407 202.775 18.3348L202.964 18.0037C203.014 17.9091 203.019 17.7997 203.078 17.7051C203.121 17.6282 203.089 17.7317 203.119 17.6105L203.174 17.4597C203.186 17.442 203.188 17.439 203.197 17.4154L203.218 17.3681C203.287 17.1434 203.206 17.3089 203.331 17.0724L203.488 16.5669C203.518 16.4782 203.535 16.5314 203.547 16.422C203.555 16.357 203.538 16.3629 203.561 16.2979L203.646 16.0643C203.655 16.0318 203.649 16.0466 203.657 16.0081C203.666 15.9786 203.66 15.9845 203.669 15.952C203.695 15.8692 203.719 15.9076 203.727 15.8041C203.733 15.7627 203.724 15.7095 203.73 15.6681C203.748 15.5203 203.722 15.6741 203.771 15.5735L203.841 15.2336C203.85 14.9468 203.905 15.0828 203.911 14.9143C203.914 14.8729 203.905 14.8167 203.908 14.7724C203.914 14.5477 203.952 14.7635 203.978 14.5713C203.987 14.5004 203.972 14.3703 203.975 14.2934C203.981 14.0776 204.045 14.2934 204.045 13.8145C204.045 13.6874 204.022 13.5366 204.051 13.4095C204.074 13.3149 204.089 13.4035 204.089 13.3119V13.2705H200.91Z" fill="#FBB36A"/>
<path fill-rule="evenodd" clip-rule="evenodd" d="M192.594 3.60718C192.716 3.60127 192.838 3.60422 192.9 3.62788C193.01 3.67222 192.967 3.687 193.136 3.68405C193.503 3.67518 193.272 3.74022 193.473 3.755L193.858 3.79639C194.007 3.80526 193.913 3.823 194.004 3.85552C194.047 3.87326 194.039 3.86439 194.082 3.86734C194.289 3.88213 194.155 3.90578 194.289 3.93238L194.499 3.97082C194.505 3.97377 194.511 3.97377 194.516 3.97673L194.889 4.12455C194.895 4.12751 194.901 4.12751 194.907 4.13046L194.974 4.15411C194.98 4.15411 194.985 4.15707 194.991 4.15707L195.338 4.28419C195.344 4.28715 195.349 4.29011 195.352 4.29306C195.373 4.30489 195.376 4.30489 195.399 4.31672L195.486 4.36402C195.486 4.36402 195.527 4.38471 195.533 4.38471L195.565 4.39949C195.568 4.40245 195.574 4.40245 195.58 4.40541L195.644 4.43497C195.647 4.43497 195.652 4.44088 195.655 4.44384L195.944 4.5621C195.95 4.56505 195.955 4.56801 195.961 4.56801C195.967 4.57096 195.973 4.57392 195.979 4.57392C196.139 4.63009 196.113 4.69218 196.337 4.78383C196.34 4.78383 196.349 4.78678 196.352 4.78974C196.465 4.84 196.357 4.84 196.55 4.92869C196.555 4.93164 196.561 4.9346 196.567 4.93756L196.622 4.97303C196.701 5.01738 196.789 5.03216 196.847 5.08833C196.85 5.09425 196.861 5.10607 196.867 5.11198C196.893 5.13859 196.879 5.12381 196.899 5.14746C196.987 5.2332 197.007 5.19476 197.144 5.33371C197.161 5.3485 197.153 5.34554 197.182 5.36623C197.217 5.39284 197.185 5.36919 197.223 5.38989C197.29 5.42536 197.24 5.38102 197.31 5.44014C197.339 5.4638 197.348 5.48449 197.38 5.50519C197.412 5.52884 197.389 5.51405 197.424 5.53179L197.724 5.79787C197.793 5.86587 197.855 5.93091 197.936 5.9723C198.003 6.00482 197.942 5.95456 198.015 6.02847L198.23 6.24428C198.233 6.24428 198.251 6.26793 198.262 6.27976L198.373 6.39506C198.396 6.41575 198.391 6.40984 198.408 6.42758C198.589 6.60792 198.583 6.67592 198.691 6.78235L198.772 6.86217C198.775 6.86513 198.781 6.86808 198.784 6.87104L198.898 6.98634C198.9 6.98929 198.906 6.99521 198.909 6.99816C198.953 7.04842 198.938 7.06616 198.979 7.1312C199.043 7.22285 199.072 7.20511 199.136 7.33815C199.168 7.39728 199.224 7.4298 199.265 7.48006L199.431 7.74909C199.448 7.78456 199.431 7.76091 199.454 7.79343L199.573 7.96786C199.576 7.97377 199.579 7.97969 199.582 7.98264C199.585 7.98856 199.588 7.99151 199.591 7.99742C199.594 8.00038 199.597 8.00629 199.6 8.00925L199.643 8.10385C199.646 8.10977 199.646 8.11568 199.649 8.12159L199.815 8.38767C199.818 8.39358 199.818 8.39949 199.821 8.40541L200.048 8.88434C200.109 8.99964 200.002 8.80156 200.066 8.91095L200.313 9.52884C200.316 9.53475 200.319 9.53771 200.322 9.54362C200.325 9.54657 200.328 9.55249 200.331 9.5584C200.334 9.56136 200.337 9.56727 200.337 9.57318C200.366 9.653 200.36 9.68848 200.401 9.75943C200.444 9.83926 200.447 9.92795 200.479 10.0019C200.526 10.1083 200.5 9.96934 200.523 10.0935C200.535 10.1379 200.523 10.1792 200.532 10.2206C200.558 10.3507 200.567 10.2147 200.599 10.4512L200.619 10.5222C200.66 10.6493 200.616 10.6552 200.683 10.7764L200.709 10.9124C200.727 11.1312 200.762 10.9183 200.779 11.1164C200.785 11.1933 200.762 11.3381 200.782 11.4091C200.814 11.5185 200.846 11.4121 200.846 11.619C200.846 11.8614 200.89 11.9206 200.89 12.1689C200.887 12.4261 200.916 12.9169 200.91 13.2716H204.089V12.1689C204.089 12.1216 204.042 12.0654 204.042 11.9413C204.045 11.7727 204.071 11.5599 204.042 11.3943C204.016 11.2288 203.978 11.3884 203.975 11.1637C203.969 10.5636 203.905 10.9863 203.908 10.6611C203.908 10.5281 203.92 10.5222 203.867 10.4276C203.841 10.3803 203.847 10.3123 203.838 10.2532L203.8 10.129C203.783 10.0255 203.806 9.97229 203.754 9.87769C203.71 9.80082 203.745 9.71805 203.724 9.63527C203.707 9.5584 203.698 9.62935 203.652 9.43423L203.631 9.36328C203.628 9.35737 203.625 9.35441 203.625 9.34554L203.555 9.1652C203.541 9.11494 203.555 9.08538 203.547 9.03808C203.532 8.93164 203.509 8.97895 203.471 8.81635C203.456 8.74539 203.474 8.82817 203.456 8.76313L203.369 8.50888C203.343 8.3788 203.357 8.44975 203.311 8.36106L203.063 7.74318C203.054 7.72839 203.049 7.71361 203.043 7.69587L202.842 7.28198C202.842 7.27606 202.839 7.27015 202.836 7.26424L202.262 6.20289C202.259 6.19698 202.239 6.17037 202.236 6.1615C202.215 6.12603 202.224 6.13194 202.204 6.09942L202.14 6.02551C202.079 5.96047 202.119 6.01368 202.087 5.94569C202.073 5.91908 202.079 5.92795 202.064 5.89839L202.006 5.77422C201.974 5.70622 201.886 5.65892 201.848 5.59092L201.816 5.5111C201.776 5.4431 201.688 5.38693 201.653 5.31006C201.61 5.21546 201.566 5.22137 201.458 5.02921C201.455 5.02329 201.452 5.01738 201.449 5.01442C201.403 4.94051 201.336 4.90799 201.295 4.82521C201.184 4.59757 200.832 4.40541 200.707 4.18959C200.631 4.05655 200.625 4.04768 200.497 3.92351L200.383 3.80822C200.366 3.79048 200.366 3.79048 200.351 3.77274C200.287 3.7077 200.203 3.687 200.138 3.62196C199.987 3.46527 199.853 3.2938 199.664 3.18737L199.559 3.08981C199.556 3.08686 199.55 3.08094 199.547 3.07799L199.346 2.93904C199.241 2.85626 199.2 2.77939 199.072 2.71435C199.026 2.68774 199.072 2.72026 199.032 2.68774L198.877 2.56949C198.871 2.56653 198.865 2.56357 198.863 2.56062L198.35 2.21176C198.344 2.21176 198.338 2.20881 198.335 2.20585L198.172 2.11716C198.146 2.09646 198.14 2.08464 198.137 2.08464L198.053 2.03438C197.974 1.99299 197.828 1.94273 197.767 1.88952L197.744 1.86587C197.665 1.78604 197.593 1.78013 197.496 1.72987L196.969 1.48449C196.966 1.48449 196.96 1.48153 196.955 1.47858L196.64 1.31893C196.637 1.31893 196.593 1.29824 196.59 1.29824L196.564 1.2805C196.558 1.27754 196.555 1.27459 196.55 1.27163C196.436 1.20363 196.471 1.26867 196.349 1.20068L196.18 1.14451C196.174 1.14451 196.168 1.14155 196.162 1.13859L195.906 1.03512C195.9 1.03216 195.894 1.02921 195.891 1.02625L195.472 0.87843C195.227 0.822258 195.37 0.813389 195.21 0.801564C195.081 0.792694 195.093 0.745392 194.985 0.733567C194.945 0.727654 194.892 0.736523 194.851 0.73061L194.749 0.69809C194.688 0.680352 194.659 0.695134 194.604 0.683308C194.493 0.659657 194.563 0.659657 194.516 0.636006C194.455 0.606442 194.473 0.62418 194.4 0.618267C194.208 0.603485 194.356 0.559139 194.176 0.55027C194.097 0.544357 193.989 0.55027 193.925 0.526619L193.814 0.502968C193.727 0.500012 193.61 0.526619 193.535 0.491142C193.418 0.437927 193.575 0.473404 193.447 0.440884C193.348 0.414276 193.191 0.446796 193.074 0.405407C193.057 0.399494 192.975 0.393581 192.853 0.390625H192.594V3.60718Z" fill="#F88007"/>
</svg>
